Coordinates
version=1
nRows=41
nColumns=38
inDegrees=no

Units are S.I. units (second, meters, Newtons, ...)
If the header above contains a line with 'inDegrees', this indicates whether rotational values are in degrees (yes) or radians (no).

endheader
time	pelvis_tilt	pelvis_list	pelvis_rotation	pelvis_tx	pelvis_ty	pelvis_tz	hip_flexion_r	hip_adduction_r	hip_rotation_r	knee_angle_r	ankle_angle_r	subtalar_angle_r	mtp_angle_r	hip_flexion_l	hip_adduction_l	hip_rotation_l	knee_angle_l	ankle_angle_l	subtalar_angle_l	mtp_angle_l	lumbar_extension	lumbar_bending	lumbar_rotation	arm_flex_r	arm_add_r	arm_rot_r	elbow_flex_r	pro_sup_r	wrist_flex_r	wrist_dev_r	arm_flex_l	arm_add_l	arm_rot_l	elbow_flex_l	pro_sup_l	wrist_flex_l	wrist_dev_l
1.87	0.472191	1.37119	1.3027	0.820164	1.72976	1.04712	0.214328	0.117036	-0.174489	0.25895	-0.156519	0	0	0.483823	-0.205694	-0.14732	1.09159	-0.148167	0	0	0.136791	0.0929091	-0.018545	-0.27121	-0.338883	-0.0708423	0.64723	1.4618	0	0	-0.157907	-0.238485	-0.723643	0.475789	1.25521	0	0
1.88	0.451255	1.37643	1.31404	0.8199	1.74034	1.04867	0.196982	0.11393	-0.174406	0.254575	-0.160266	0	0	0.486875	-0.209468	-0.181897	1.05613	-0.14755	0	0	0.131836	0.0883769	-0.0070465	-0.272646	-0.340366	-0.0761362	0.667477	1.45988	0	0	-0.157027	-0.23749	-0.713826	0.476074	1.25214	0	0
1.89	0.425833	1.37959	1.32983	0.819604	1.7509	1.04995	0.182178	0.110356	-0.173405	0.250853	-0.162086	0	0	0.490592	-0.211357	-0.213714	1.01539	-0.14776	0	0	0.131853	0.0824935	-0.0013111	-0.267876	-0.346845	-0.0592882	0.680992	1.44444	0	0	-0.161707	-0.234354	-0.714851	0.480818	1.25271	0	0
1.9	0.405981	1.38635	1.33998	0.81932	1.76146	1.0514	0.162716	0.107049	-0.169012	0.246033	-0.16532	0	0	0.488041	-0.212654	-0.245355	0.969708	-0.149687	0	0	0.125168	0.0780869	0.0101358	-0.268727	-0.347555	-0.0657182	0.700725	1.44634	0	0	-0.157312	-0.231149	-0.718824	0.479985	1.26367	0	0
1.91	0.390436	1.39515	1.34635	0.818856	1.77197	1.05274	0.14092	0.103861	-0.163137	0.241673	-0.168171	0	0	0.481284	-0.212541	-0.277177	0.919245	-0.154276	0	0	0.11306	0.0748141	0.0224247	-0.270932	-0.347335	-0.0791538	0.724683	1.45149	0	0	-0.156985	-0.236895	-0.678626	0.480314	1.23048	0	0
1.92	0.572234	1.4136	1.158	0.818344	1.78276	1.0588	0.127467	0.103018	-0.366127	0.312737	-0.201847	0	0	0.452972	-0.242399	-0.303294	0.859301	-0.167581	0	0	0.0798994	0.100469	0.0321432	-0.256093	-0.350037	-0.0827216	0.722494	1.45719	0	0	-0.122378	-0.219663	-0.751222	0.449997	1.3222	0	0
1.93	0.346652	1.40453	1.37244	0.818205	1.79279	1.05447	0.107317	0.0968099	-0.161791	0.233551	-0.173527	0	0	0.47361	-0.209202	-0.334415	0.806678	-0.16985	0	0	0.102103	0.0667423	0.0424829	-0.272499	-0.349644	-0.0866321	0.764382	1.44867	0	0	-0.137071	-0.219149	-0.747256	0.476885	1.31481	0	0
1.94	0.32123	1.40533	1.38993	0.817675	1.8032	1.05466	0.0937045	0.093325	-0.160935	0.226995	-0.173965	0	0	0.472603	-0.203861	-0.356397	0.745155	-0.178598	0	0	0.102092	0.0629854	0.049813	-0.272713	-0.350973	-0.0887969	0.782049	1.45041	0	0	-0.1348	-0.217031	-0.747711	0.477136	1.31943	0	0
1.95	0.299219	1.40657	1.40503	0.817	1.81353	1.05464	0.0799714	0.090029	-0.160477	0.221846	-0.174275	0	0	0.470319	-0.196468	-0.372797	0.68031	-0.191011	0	0	0.100587	0.0599111	0.0570284	-0.273706	-0.352371	-0.0923074	0.800612	1.45131	0	0	-0.130877	-0.21486	-0.747816	0.477111	1.32464	0	0
1.96	0.279068	1.40591	1.4183	0.816254	1.82384	1.05423	0.0690054	0.0869596	-0.16021	0.219165	-0.173385	0	0	0.468914	-0.187633	-0.385373	0.612291	-0.206892	0	0	0.101084	0.0579751	0.0647631	-0.276278	-0.353717	-0.0976333	0.82001	1.45289	0	0	-0.126236	-0.213002	-0.747343	0.475682	1.3335	0	0
1.97	0.262241	1.40245	1.42908	0.815434	1.83411	1.05334	0.061086	0.0844652	-0.159719	0.217035	-0.171649	0	0	0.469859	-0.177406	-0.39105	0.54172	-0.222646	0	0	0.105156	0.0572563	0.071345	-0.2795	-0.354766	-0.103569	0.838624	1.45554	0	0	-0.121938	-0.211479	-0.746341	0.473179	1.3436	0	0
1.98	0.252329	1.39741	1.4343	0.814501	1.84434	1.0521	0.0541954	0.0832777	-0.157387	0.214176	-0.169711	0	0	0.471706	-0.165868	-0.387017	0.468414	-0.238458	0	0	0.111188	0.0579927	0.0765303	-0.283017	-0.355321	-0.110384	0.856034	1.45811	0	0	-0.11753	-0.209978	-0.745149	0.469945	1.35365	0	0
1.99	0.247096	1.39009	1.43588	0.813283	1.85449	1.05025	0.0497813	0.0829392	-0.155248	0.212001	-0.165778	0	0	0.474471	-0.153333	-0.370977	0.391677	-0.256702	0	0	0.118185	0.0608352	0.0823195	-0.289565	-0.353475	-0.127076	0.875914	1.46904	0	0	-0.122632	-0.223756	-0.664147	0.466363	1.28731	0	0
2	0.244706	1.37973	1.43451	0.812499	1.86476	1.04826	0.0487277	0.0840237	-0.153234	0.21035	-0.16083	0	0	0.479044	-0.139654	-0.343319	0.312164	-0.27003	0	0	0.131468	0.0629869	0.0848649	-0.292135	-0.352035	-0.133318	0.888466	1.47433	0	0	-0.109302	-0.207229	-0.7436	0.462567	1.37961	0	0
2.01	0.245765	1.36873	1.42992	0.811468	1.87506	1.04575	0.0483934	0.0855802	-0.151539	0.209234	-0.156635	0	0	0.48201	-0.127082	-0.307732	0.230643	-0.279915	0	0	0.14389	0.0665484	0.086663	-0.295231	-0.352538	-0.138264	0.902605	1.47593	0	0	-0.110494	-0.20754	-0.731021	0.462975	1.37911	0	0
2.02	0.251292	1.35765	1.42071	0.810426	1.88551	1.04298	0.0479914	0.0879272	-0.148845	0.208705	-0.15233	0	0	0.482887	-0.116612	-0.267339	0.148619	-0.288752	0	0	0.156544	0.0713535	0.0884297	-0.298762	-0.352862	-0.143634	0.915875	1.47594	0	0	-0.112504	-0.208051	-0.716205	0.463889	1.37578	0	0
2.03	0.260409	1.34759	1.40735	0.809469	1.89614	1.04005	0.0463086	0.0911587	-0.146136	0.208651	-0.148735	0	0	0.48206	-0.109786	-0.229339	0.0717221	-0.29247	0	0	0.168266	0.0767748	0.0899231	-0.301345	-0.353778	-0.146124	0.92697	1.47094	0	0	-0.114389	-0.206024	-0.714702	0.46723	1.38291	0	0
2.04	0.267748	1.33775	1.39527	0.808526	1.90695	1.03701	0.0449075	0.0939024	-0.144367	0.210404	-0.143431	0	0	0.481417	-0.105266	-0.19492	0.00217436	-0.298371	0	0	0.180386	0.0823438	0.0929841	-0.305441	-0.352886	-0.152295	0.937141	1.46851	0	0	-0.113625	-0.203054	-0.721654	0.467862	1.39989	0	0
2.05	0.271743	1.33153	1.38644	0.807585	1.91795	1.03417	0.0398709	0.0950906	-0.144376	0.21227	-0.140193	0	0	0.487321	-0.104086	-0.192041	0	-0.294881	0	0	0.188414	0.0859259	0.0952208	-0.306869	-0.351829	-0.155619	0.943809	1.46652	0	0	-0.113457	-0.20135	-0.72396	0.468795	1.4062	0	0
2.06	0.268895	1.32348	1.3842	0.806612	1.92917	1.03112	0.038105	0.0946656	-0.143846	0.217349	-0.130935	0	0	0.496785	-0.102096	-0.192203	0	-0.278803	0	0	0.200267	0.0886181	0.101274	-0.312992	-0.348175	-0.165078	0.950586	1.4618	0	0	-0.10834	-0.19828	-0.739366	0.464946	1.43019	0	0
2.07	0.261108	1.32197	1.38765	0.805657	1.94024	1.02876	0.0300343	0.0918728	-0.142628	0.221262	-0.12568	0	0	0.504578	-0.0981451	-0.196295	0	-0.262967	0	0	0.203022	0.0891176	0.105411	-0.315911	-0.344593	-0.172774	0.95655	1.45889	0	0	-0.118446	-0.216518	-0.635517	0.464444	1.33072	0	0
2.08	0.250212	1.32203	1.39432	0.804176	1.95212	1.02637	0.0219343	0.0867429	-0.146312	0.231325	-0.116216	0	0	0.503347	-0.089836	-0.203241	0	-0.242364	0	0	0.20547	0.0864384	0.110342	-0.317029	-0.33971	-0.17905	0.955148	1.45187	0	0	-0.105754	-0.202431	-0.709977	0.462621	1.40297	0	0
2.09	0.238424	1.32308	1.40349	0.802784	1.96372	1.02435	0.0133955	0.0819046	-0.146728	0.240281	-0.113339	0	0	0.506357	-0.0812332	-0.207245	0	-0.235069	0	0	0.203721	0.0831176	0.109629	-0.313899	-0.335687	-0.18103	0.952953	1.44841	0	0	-0.105367	-0.201903	-0.707969	0.464857	1.39356	0	0
2.1	0.231133	1.32392	1.40963	0.801356	1.9755	1.02254	0.00476486	0.0786457	-0.144249	0.248533	-0.113616	0	0	0.510349	-0.0731571	-0.209179	0	-0.233963	0	0	0.203341	0.0804825	0.109659	-0.312711	-0.330817	-0.18382	0.947976	1.44691	0	0	-0.0989085	-0.196764	-0.732129	0.463492	1.41075	0	0
2.11	0.225841	1.32692	1.41486	0.799889	1.98753	1.02113	-0.00581451	0.0753044	-0.142111	0.258154	-0.112711	0	0	0.51225	-0.0650393	-0.209931	0	-0.235103	0	0	0.200119	0.0776015	0.108739	-0.311016	-0.325619	-0.185879	0.941	1.44332	0	0	-0.0958805	-0.194776	-0.73603	0.464092	1.4075	0	0
2.12	0.22258	1.33081	1.41832	0.79846	1.99982	1.01995	-0.0168186	0.0721407	-0.141266	0.269125	-0.112747	0	0	0.512634	-0.0577465	-0.208464	0	-0.240193	0	0	0.196108	0.0754441	0.108303	-0.310691	-0.320024	-0.188652	0.933367	1.43988	0	0	-0.093421	-0.192377	-0.738688	0.4656	1.4039	0	0
2.13	0.222373	1.33417	1.41818	0.797142	2.01238	1.01879	-0.0258695	0.069501	-0.142264	0.283251	-0.114064	0	0	0.512379	-0.0523094	-0.204512	0	-0.246685	0	0	0.193164	0.0743226	0.109274	-0.31222	-0.314039	-0.192265	0.92514	1.43662	0	0	-0.0920959	-0.18936	-0.740766	0.468518	1.39936	0	0
2.14	0.22006	1.33959	1.41998	0.795833	2.0253	1.01775	-0.034117	0.0654367	-0.148401	0.304288	-0.120048	0	0	0.51012	-0.0480457	-0.200669	0.0126034	-0.258178	0	0	0.186039	0.0723734	0.11116	-0.313175	-0.306188	-0.199384	0.916117	1.43442	0	0	-0.112789	-0.207716	-0.619458	0.483557	1.26438	0	0
2.15	0.219439	1.34047	1.41634	0.794616	2.03885	1.01647	-0.0378223	0.0612265	-0.148142	0.325574	-0.1257	0	0	0.51044	-0.0450408	-0.203158	0.0415071	-0.256022	0	0	0.189417	0.0719576	0.115222	-0.317599	-0.300531	-0.199751	0.903219	1.43345	0	0	-0.113751	-0.202518	-0.628965	0.486507	1.26641	0	0
2.16	0.213252	1.3413	1.4159	0.793497	2.05279	1.01523	-0.03876	0.0550797	-0.145946	0.35158	-0.133044	0	0	0.507881	-0.04091	-0.204246	0.060862	-0.260294	0	0	0.191499	0.070324	0.117549	-0.317809	-0.296432	-0.194049	0.887174	1.43453	0	0	-0.120978	-0.198227	-0.638209	0.492436	1.264	0	0
2.17	0.201428	1.34015	1.4199	0.792502	2.06699	1.01411	-0.034885	0.0472646	-0.139989	0.38298	-0.145364	0	0	0.506518	-0.0360205	-0.205792	0.0732636	-0.283289	0	0	0.198706	0.0664237	0.117178	-0.312997	-0.293467	-0.178444	0.861179	1.43827	0	0	-0.133171	-0.195189	-0.649301	0.499613	1.26037	0	0
2.18	0.185744	1.33456	1.42725	0.79189	2.08109	1.013	-0.0227263	0.0392865	-0.129466	0.420409	-0.160506	0	0	0.510604	-0.0333454	-0.20987	0.0853745	-0.31354	0	0	0.213591	0.0616259	0.114578	-0.304771	-0.29067	-0.155192	0.827134	1.44369	0	0	-0.14735	-0.194515	-0.660106	0.502954	1.25605	0	0
2.19	0.158916	1.32447	1.44486	0.791385	2.09485	1.01177	1.05612e-05	0.02778	-0.120514	0.467741	-0.177714	0	0	0.519891	-0.032229	-0.217842	0.100427	-0.333713	0	0	0.234988	0.0546562	0.112458	-0.295614	-0.287174	-0.129151	0.78901	1.44939	0	0	-0.16184	-0.195106	-0.670665	0.503591	1.2517	0	0
2.2	0.128305	1.31505	1.46713	0.790739	2.10841	1.01087	0.0253018	0.0138544	-0.109517	0.519171	-0.1998	0	0	0.527973	-0.0315785	-0.226546	0.11848	-0.34124	0	0	0.255801	0.0463624	0.109705	-0.286099	-0.283127	-0.102574	0.749919	1.45442	0	0	-0.175525	-0.19615	-0.681166	0.502749	1.24776	0	0
2.21	0.0943603	1.30842	1.49467	0.789862	2.12171	1.01041	0.0501	-0.00225774	-0.0985037	0.572524	-0.227517	0	0	0.533633	-0.0291914	-0.234537	0.14114	-0.340544	0	0	0.271869	0.0365974	0.10724	-0.277873	-0.278444	-0.0782129	0.713209	1.45925	0	0	-0.186257	-0.197998	-0.68922	0.500029	1.24508	0	0
2.22	0.0546455	1.30282	1.53017	0.788879	2.13466	1.01017	0.0758057	-0.0202993	-0.0888132	0.626431	-0.263386	0	0	0.538734	-0.023282	-0.237982	0.167378	-0.332735	0	0	0.285215	0.0237163	0.101397	-0.267637	-0.277199	-0.0404578	0.677401	1.44824	0	0	-0.20849	-0.213248	-0.630625	0.503607	1.17304	0	0
2.23	0.0113871	1.29993	1.57069	0.7877	2.14722	1.01033	0.100282	-0.0394217	-0.0807623	0.679648	-0.308363	0	0	0.541464	-0.0148009	-0.240263	0.19661	-0.317163	0	0	0.295003	0.00809867	0.100276	-0.259698	-0.271095	-0.0145998	0.641118	1.44636	0	0	-0.197978	-0.195494	-0.744983	0.497867	1.27169	0	0
2.24	0.0730064	1.32526	1.51506	0.785149	2.16102	1.01638	0.0912324	-0.0763684	-0.293563	0.71279	-0.454727	0	0	0.511989	-0.0292035	-0.239834	0.22351	-0.303842	0	0	0.273691	0.021512	0.0893126	-0.237167	-0.267739	0.0120167	0.578675	1.44838	0	0	-0.178793	-0.199821	-0.747791	0.452065	1.27534	0	0
2.25	-0.080215	1.29511	1.65821	0.785409	2.17117	1.0107	0.15403	-0.0766106	-0.0620336	0.790155	-0.381953	0	0	0.546525	0.00637436	-0.24678	0.256087	-0.27638	0	0	0.302057	-0.0243627	0.102188	-0.251417	-0.255777	0.0157199	0.587317	1.45404	0	0	-0.200667	-0.203419	-0.750785	0.494295	1.25977	0	0
2.26	-0.118005	1.29553	1.69275	0.784267	2.18254	1.01097	0.181059	-0.091734	-0.0518924	0.845868	-0.426302	0	0	0.544264	0.0154062	-0.250626	0.28024	-0.259699	0	0	0.297243	-0.0367358	0.108652	-0.252249	-0.250131	0.025868	0.571183	1.45183	0	0	-0.195578	-0.206839	-0.750477	0.492078	1.26591	0	0
2.27	-0.149415	1.29819	1.71862	0.783307	2.19375	1.01146	0.207281	-0.103763	-0.0413332	0.899413	-0.475765	0	0	0.536109	0.0219422	-0.255955	0.296546	-0.246545	0	0	0.289557	-0.0455378	0.11812	-0.254906	-0.245951	0.0359908	0.558952	1.4483	0	0	-0.188305	-0.208631	-0.749848	0.489615	1.26996	0	0
